HIERARCHY
ROOT joint_Root
{
	OFFSET 0.0 0.0 0.0
	CHANNELS 6 Xposition Yposition Zposition Zrotation Xrotation Yrotation 
	JOINT Hips
	{
		OFFSET -17.1583 93.1646 452.98
		CHANNELS 6 Xposition Yposition Zposition Zrotation Xrotation Yrotation 
		JOINT Spine
		{
			OFFSET 15.7357 0.0 0.0
			CHANNELS 6 Xposition Yposition Zposition Zrotation Xrotation Yrotation 
			JOINT Chest
			{
				OFFSET 8.98455 -0.406207 0.0
				CHANNELS 6 Xposition Yposition Zposition Zrotation Xrotation Yrotation 
				JOINT Neck
				{
					OFFSET 16.3773 0.0 0.0
					CHANNELS 6 Xposition Yposition Zposition Zrotation Xrotation Yrotation 
					JOINT Head
					{
						OFFSET 6.45672 0.0 0.0
						CHANNELS 6 Xposition Yposition Zposition Zrotation Xrotation Yrotation 
						End Site
						{
							OFFSET 0.0 0.0 0.0
						}
					}
				}
				JOINT Shoulder_L
				{
					OFFSET 12.9942 -0.242716 4.98039
					CHANNELS 6 Xposition Yposition Zposition Zrotation Xrotation Yrotation 
					JOINT UpperArm_L
					{
						OFFSET 5.34809 0.0 0.0
						CHANNELS 6 Xposition Yposition Zposition Zrotation Xrotation Yrotation 
						JOINT LowerArm_L
						{
							OFFSET 24.3286 1.87007e-05 0.0
							CHANNELS 6 Xposition Yposition Zposition Zrotation Xrotation Yrotation 
							JOINT Hand_L
							{
								OFFSET 22.2916 0.0 0.0
								CHANNELS 6 Xposition Yposition Zposition Zrotation Xrotation Yrotation 
								End Site
								{
									OFFSET 0.0 0.0 0.0
								}
							}
						}
					}
				}
				JOINT Shoulder_R
				{
					OFFSET 12.9945 -0.242716 -4.98039
					CHANNELS 6 Xposition Yposition Zposition Zrotation Xrotation Yrotation 
					JOINT UpperArm_R
					{
						OFFSET -5.34813 0.0 0.0
						CHANNELS 6 Xposition Yposition Zposition Zrotation Xrotation Yrotation 
						JOINT LowerArm_R
						{
							OFFSET -24.3289 0.000322201 0.0
							CHANNELS 6 Xposition Yposition Zposition Zrotation Xrotation Yrotation 
							JOINT Hand_R
							{
								OFFSET -22.2915 -0.000108084 0.0
								CHANNELS 6 Xposition Yposition Zposition Zrotation Xrotation Yrotation 
								End Site
								{
									OFFSET 0.0 0.0 0.0
								}
							}
						}
					}
				}
			}
		}
		JOINT UpperLeg_L
		{
			OFFSET -2.19248 -6.46944 0.0
			CHANNELS 6 Xposition Yposition Zposition Zrotation Xrotation Yrotation 
			JOINT LowerLeg_L
			{
				OFFSET 39.0811 0.0 -1.23785e-05
				CHANNELS 6 Xposition Yposition Zposition Zrotation Xrotation Yrotation 
				JOINT Foot_L
				{
					OFFSET 40.9854 0.0 -1.26872e-05
					CHANNELS 6 Xposition Yposition Zposition Zrotation Xrotation Yrotation 
					JOINT Toes_L
					{
						OFFSET 11.7543 0.0 0.0
						CHANNELS 6 Xposition Yposition Zposition Zrotation Xrotation Yrotation 
						End Site
						{
							OFFSET 0.0 0.0 0.0
						}
					}
				}
			}
		}
		JOINT UpperLeg_R
		{
			OFFSET -2.19251 6.46944 0.0
			CHANNELS 6 Xposition Yposition Zposition Zrotation Xrotation Yrotation 
			JOINT LowerLeg_R
			{
				OFFSET -39.0811 -0.00228153 -0.0401928
				CHANNELS 6 Xposition Yposition Zposition Zrotation Xrotation Yrotation 
				JOINT Foot_R
				{
					OFFSET -40.9854 0.0 0.0
					CHANNELS 6 Xposition Yposition Zposition Zrotation Xrotation Yrotation 
					JOINT Toes_R
					{
						OFFSET -11.7543 0.0 0.0
						CHANNELS 6 Xposition Yposition Zposition Zrotation Xrotation Yrotation 
						End Site
						{
							OFFSET 0.0 0.0 0.0
						}
					}
				}
			}
		}
	}
}
MOTION
Frames:	5
Frame Time:	0.0333333
0.000000 0.000000 0.000000 0.000000 0.000000 -0.000000 -3.621360 84.665700 470.038000 -85.002400 0.292135 154.117000 15.735700 0.000005 -0.000001 92.127300 82.199000 -87.275400 8.984550 -0.406207 -0.000000 7.819380 0.579782 9.654360 16.377300 -0.000001 -0.000001 -15.313500 1.795920 2.512200 6.456720 -0.000001 -0.000000 -13.337600 7.071890 -10.012900 12.994200 -0.242716 4.980390 -91.590700 5.224460 -73.039000 5.348090 -0.000007 -0.000001 -66.141700 1.105750 9.684940 24.328600 0.000019 0.000005 8.297430 33.617700 -14.756400 22.291600 -0.000001 0.000005 -9.691100 5.195360 2.823560 12.994500 -0.242716 -4.980390 90.276000 -1.097610 -75.885800 -5.348130 -0.000001 -0.000004 -61.542300 11.994100 -14.260300 -24.328900 0.000322 -0.000009 4.902040 4.029380 -50.732600 -22.291500 -0.000108 -0.000004 12.403900 5.350590 -1.263380 -2.192480 -6.469440 -0.000000 -173.183000 -2.735570 -28.559700 39.081100 -0.000007 -0.000012 0.346620 -0.118477 71.128600 40.985400 -0.000006 -0.000013 -7.988430 11.327800 -41.840000 11.754300 -0.000000 0.000003 0.001387 0.028053 -15.438800 -2.192510 6.469440 -0.000001 -173.808000 8.872710 149.745000 -39.081100 -0.002282 -0.040193 0.058853 -0.053876 45.897800 -40.985400 0.000008 0.000006 -11.602100 4.616460 -87.295500 -11.754300 -0.000006 -0.000006 0.002453 0.073801 -13.580000
0.000000 0.000000 0.000000 0.000000 0.000000 -0.000000 -3.793630 86.897700 463.371000 -87.750200 0.044721 153.533000 15.735700 0.000005 -0.000001 95.919200 82.678100 -92.349800 8.984550 -0.406207 -0.000000 6.765310 1.474350 7.043990 16.377300 -0.000001 -0.000001 -14.539200 1.238150 2.023060 6.456720 -0.000001 -0.000000 -12.233100 5.062980 -8.955740 12.994200 -0.242716 4.980390 -91.392200 4.415450 -72.479300 5.348090 -0.000007 -0.000001 -59.652300 -4.432410 13.257500 24.328600 0.000019 0.000005 6.018770 29.743400 -11.995600 22.291600 -0.000001 0.000005 -2.675270 5.097950 5.082640 12.994500 -0.242716 -4.980390 90.282900 -1.120720 -75.830000 -5.348130 -0.000001 -0.000004 -61.282100 10.447000 -12.376300 -24.328900 0.000322 -0.000009 2.722120 1.291600 -64.771100 -22.291500 -0.000108 -0.000004 19.114900 5.473390 -5.439650 -2.192480 -6.469440 -0.000000 -175.981000 -0.171734 -36.838300 39.081100 -0.000007 -0.000012 0.307145 -0.083514 74.787800 40.985400 -0.000006 -0.000013 -7.463480 9.277380 -48.426300 11.754300 -0.000000 0.000003 0.001705 0.036793 -15.084200 -2.192510 6.469440 -0.000001 -176.953000 12.551200 158.436000 -39.081100 -0.002282 -0.040193 0.038826 -0.051352 34.682200 -40.985400 0.000008 0.000006 -11.724900 5.748660 -79.529500 -11.754300 -0.000006 -0.000006 -0.001920 -0.027714 -17.700000
0.000000 0.000000 0.000000 0.000000 0.000000 -0.000000 -4.086630 89.500100 456.407000 -91.247200 -0.127311 151.824000 15.735700 0.000005 -0.000001 99.373400 83.706800 -97.459000 8.984550 -0.406207 -0.000000 4.624230 1.993800 3.744150 16.377300 -0.000001 -0.000001 -13.554100 0.585743 1.656310 6.456720 -0.000001 -0.000000 -10.810200 3.009640 -7.235110 12.994200 -0.242716 4.980390 -90.846100 2.673230 -72.431500 5.348090 -0.000007 -0.000001 -53.406800 -10.279300 16.432500 24.328600 0.000019 0.000005 3.873190 22.610800 -9.983780 22.291600 -0.000001 0.000005 4.938360 4.931060 8.705430 12.994500 -0.242716 -4.980390 90.449200 -1.802120 -75.998600 -5.348130 -0.000001 -0.000004 -62.862100 8.419300 -9.689510 -24.328900 0.000322 -0.000009 0.032421 0.012645 -75.807100 -22.291500 -0.000108 -0.000004 21.225200 5.509350 -6.913080 -2.192480 -6.469440 -0.000000 -179.369000 2.326350 -43.920100 39.081100 -0.000007 -0.000012 0.226147 -0.072334 72.261400 40.985400 -0.000006 -0.000013 -6.918850 7.045310 -55.394900 11.754300 -0.000000 0.000003 0.002395 0.067630 -13.833800 -2.192510 6.469440 -0.000001 179.811000 15.659700 165.193000 -39.081100 -0.002282 -0.040193 0.026324 -0.053637 23.217900 -40.985400 0.000008 0.000006 -9.290730 3.400390 -66.588900 -11.754300 -0.000006 -0.000006 -0.029812 -0.216598 -25.446100
0.000000 0.000000 0.000000 0.000000 0.000000 -0.000000 -4.369160 91.963500 449.417000 -94.090800 0.296221 149.271000 15.735700 0.000005 -0.000001 105.658000 84.863100 -105.396000 8.984550 -0.406207 -0.000000 2.122740 2.758020 0.471316 16.377300 -0.000001 -0.000001 -12.931700 -0.027268 1.593060 6.456720 -0.000001 -0.000000 -9.735530 1.086120 -5.610370 12.994200 -0.242716 4.980390 -90.321400 1.023250 -72.561800 5.348090 -0.000007 -0.000001 -46.729600 -17.207300 19.244100 24.328600 0.000019 0.000005 2.468710 15.711900 -9.045480 22.291600 -0.000001 0.000005 12.596000 4.796610 11.335400 12.994500 -0.242716 -4.980390 90.650700 -2.748900 -76.673500 -5.348130 -0.000001 -0.000004 -65.185700 6.535290 -6.906460 -24.328900 0.000322 -0.000009 -1.931200 -0.187141 -84.432100 -22.291500 -0.000108 -0.000004 21.277700 5.517530 -7.253810 -2.192480 -6.469440 -0.000000 177.893000 3.832970 -49.459900 39.081100 -0.000007 -0.000012 0.143065 -0.067464 64.751400 40.985400 -0.000006 -0.000013 -6.112020 5.075010 -62.152500 11.754300 -0.000000 0.000003 0.001813 0.040176 -14.947100 -2.192510 6.469440 -0.000001 177.935000 18.917700 169.096000 -39.081100 -0.002282 -0.040193 0.027581 -0.102547 13.303500 -40.985400 0.000008 0.000006 -4.268970 0.214486 -49.911800 -11.754300 -0.000006 -0.000006 -0.067297 -0.354791 -31.253400
0.000000 0.000000 0.000000 0.000000 0.000000 -0.000000 -4.353820 93.762000 442.256000 -95.053600 -0.352063 147.142000 15.735700 0.000005 -0.000001 113.220000 85.655400 -113.814000 8.984550 -0.406207 -0.000000 0.239063 3.463890 -1.196100 16.377300 -0.000001 -0.000001 -12.947300 -0.713379 1.771850 6.456720 -0.000001 -0.000000 -9.759450 -0.395596 -4.949260 12.994200 -0.242716 4.980390 -90.131900 0.413764 -72.322500 5.348090 -0.000007 -0.000001 -40.113700 -22.478800 20.558700 24.328600 0.000019 0.000005 1.415570 9.858340 -8.206880 22.291600 -0.000001 0.000005 19.876700 4.694180 13.246300 12.994500 -0.242716 -4.980390 90.731900 -3.206530 -77.135300 -5.348130 -0.000001 -0.000004 -66.634400 5.732250 -4.623080 -24.328900 0.000322 -0.000009 -3.260760 0.024631 -90.415500 -22.291500 -0.000108 -0.000004 22.033600 5.578840 -10.100400 -2.192480 -6.469440 -0.000000 177.743000 4.714080 -52.620600 39.081100 -0.000007 -0.000012 0.092910 -0.068224 53.708200 40.985400 -0.000006 -0.000013 -5.763150 6.182960 -67.026900 11.754300 -0.000000 0.000003 0.001817 0.040296 -14.942100 -2.192510 6.469440 -0.000001 178.160000 22.006700 172.683000 -39.081100 -0.002282 -0.040193 0.019269 -0.199148 4.570910 -40.985400 0.000008 0.000006 -0.771056 -0.871200 -32.616900 -11.754300 -0.000006 -0.000006 -0.033782 -0.234300 -26.181600
